#!OML:ASF F:\VICON\USERDATA\INSTALL\rory3\rory3.ASF
:FULLY-SPECIFIED
:DEGREES
106
root 0.8560418355970715 17.506242030321125 18.79729839392692 -1.9212252356635595 -1.412586126774062 0.5431459836515735
lfemur 3.7585402855399765 -0.13284499909097214 -24.198219287219537
ltibia 41.530678160669325
lfoot -5.307275836229693 -7.229365272478876
ltoes -23.952863984273943
rfemur -29.099598304161887 0.9989478966623861 21.417188129501877
rtibia 24.088767337494943
rfoot -2.9859785790813875 -13.88231639909172
rtoes 3.0396353791160062
lowerback 12.776371436030402 0.18629958663627977 -2.169214172046912
upperback 0.5459696485970038 -0.012826147689144474 1.3281923113009357
thorax -6.146963264082516 0.030914453481089177 2.437924852035348
lowerneck -16.239489984056338 -3.1774576262444594 -2.8765818692336733
upperneck 21.11332603707122 -4.142058830063222 2.7158776204488095
head 9.4128775488387 -1.8983510976573839 0.7370895096836649
lclavicle 3.0066569227600635e-16 5.65466426434095e-17
lhumerus -31.905496256820136 2.6922086443452646 79.89225199976035
lradius 33.496423135910035
lwrist 10.769152070475661
lhand -29.180414107599614 19.084775284127907
lfingers 7.125020000000001
lthumb -2.4184591499250776 48.95319193859869
rclavicle 3.0518798264692964e-16 5.927420262917438e-17
rhumerus -31.52332379561277 -18.035461078710206 -78.33136658776651
rradius 27.86742227901775
rwrist 1.4284881561979392
rhand -17.633938500648146 22.440956893031146
rfingers 7.125020000000001
rthumb 8.289479843155252 -7.993054910559862
107
root 0.7876402344685147 17.545256296799113 19.727344053920056 -1.662613271647797 0.034376271961913396 0.3259053927529214
lfemur 4.823549164143402 -0.4568397156079116 -23.71359461159755
ltibia 43.337257485353675
lfoot -4.323654085742105 -7.225035735006668
ltoes -22.59931065402273
rfemur -28.61381088819696 2.4141726228473392 21.194159964379022
rtibia 21.340826723088078
rfoot -4.374933237060114 -12.633720102548326
rtoes 4.107516855410269
lowerback 12.146204440894353 -0.02883942021394817 -1.8752984868112776
upperback 0.6010261069575997 -0.20315497876201194 1.4672508211631299
thorax -6.031305530529784 -0.0611841190187378 2.60512090608427
lowerneck -16.321142501538716 -3.1867385610115604 -2.917068992181444
upperneck 20.987945346435673 -4.162754222720657 2.8640460878464524
head 9.36226462392202 -1.9002712999012592 0.8221612767033892
lclavicle 2.998401702043121e-16 5.59575877380798e-17
lhumerus -31.913078746422663 3.0741850865120015 79.79003950030841
lradius 33.56915119493493
lwrist 10.648907375805676
lhand -29.19681301913532 18.874822951389664
lfingers 7.125020000000001
lthumb -2.3946093744030765 48.759032764007564
rclavicle 3.0492078483117197e-16 5.910000917221639e-17
rhumerus -32.01809973452269 -18.358167582399208 -78.03032834403841
rradius 27.859733159442744
rwrist 1.416692900916214
rhand -17.541383337330526 22.685794419310863
rfingers 7.125020000000001
rthumb 8.361552307568195 -7.808935901963153
108
root 0.7018476283345797 17.473254877515213 20.276553710645068 -1.8469635101347666 0.596129086443262 -0.2149458507854063
lfemur 5.154914087223697 -0.7164204470484952 -22.854697381839777
ltibia 45.833531866260024
lfoot -4.74951335767682 -7.247417767002793
ltoes -23.10527798382262
rfemur -28.06851729380791 3.0574679719948117 22.2466036782508
rtibia 21.360575998360613
rfoot -4.920798792485737 -11.245971663230948
rtoes 5.404168461251305
lowerback 11.650458796881368 -0.210185969367063 -1.3427417644649131
upperback 0.5036199883501253 -0.318402633270504 1.6557461966821614
thorax -6.021875252635533 -0.1210809230568611 2.6744284407584886
lowerneck -16.377276618418207 -3.1826421401622444 -2.9346272380513856
upperneck 20.899879759031855 -4.157222211000056 2.9488389328747453
head 9.327545439507313 -1.8950049865880767 0.8816146884038882
lclavicle 2.9904834362709163e-16 5.539124417592282e-17
lhumerus -31.825561931848707 3.587353520723929 79.83348284460521
lradius 33.39981766547161
lwrist 10.45691460632905
lhand -29.231753062533404 18.62737693835437
lfingers 7.125020000000001
lthumb -2.373406973736444 48.57810696189935
rclavicle 3.060930561425016e-16 6.000803173296882e-17
rhumerus -32.54647464438883 -18.77323865065389 -77.65877254406455
rradius 27.704818115851634
rwrist 1.5414170787808255
rhand -17.434469755141592 22.98463186573857
rfingers 7.125020000000001
rthumb 8.449233054185841 -7.5388902108771845
109
root 0.6199373019351715 17.476974056772338 20.944899709052695 -2.083048911522207 1.2024367161314093 -0.749786722111567
lfemur 4.831272715980513 -0.8645681185124157 -21.77433195541442
ltibia 48.5647611738548
lfoot -4.92881541592169 -6.466903371113627
ltoes -21.85619812236265
rfemur -27.476030266021453 3.750573855931638 22.79078821219754
rtibia 23.185061707151252
rfoot -4.825844300312008 -10.15182939138818
rtoes 6.594585221650086
lowerback 11.116345510982136 -0.5172691293099773 -0.9194483019913959
upperback 0.37421673339695 -0.6160222570362968 1.8351783814472473
thorax -6.063957596116863 -0.2734887694609631 2.7498998152730074
lowerneck -16.413490588114183 -3.159114866435048 -2.922333720335599
upperneck 20.878076740893892 -4.11143147973935 2.9533042177388573
head 9.321012274867565 -1.87853985762824 0.9100908348250294
lclavicle 2.983168239307776e-16 5.48677995960032e-17
lhumerus -32.076643877471135 3.6384237049536994 79.78114679184732
lradius 33.37368540062107
lwrist 10.527310345459467
lhand -29.32514988550959 18.259706927706645
lfingers 7.125020000000001
lthumb -2.444945141257543 48.21292968285975
rclavicle 3.0723771490797026e-16 6.083980891729518e-17
rhumerus -33.0711090296479 -19.216496203438286 -77.49088362170376
rradius 27.56731339441989
rwrist 1.714994112997529
rhand -17.33415633811877 23.260875124447118
rfingers 7.125020000000001
rthumb 8.538872436268587 -7.238278504569213
110
root 0.45225962524299324 17.34483975224707 19.541407366412606 -2.8017824235562054 0.15405592105716842 -2.289359732597548
lfemur 2.824771821480719 -0.048359498173152105 -19.597084648891485
ltibia 52.41339864663923
lfoot -4.472923145562339 -6.0594149823730685
ltoes -20.52836893344952
rfemur -26.875478566074214 4.005615085911915 25.071151934617465
rtibia 25.737934295384484
rfoot -4.769713360877516 -9.186455254351808
rtoes 7.777934105122882
lowerback 11.779178211805052 -0.4622492646424867 0.026123157429619126
upperback 0.19435637459838917 -0.44413504981926555 2.086762508589625
thorax -6.285413025004562 -0.20277934949342682 2.59076456696216
lowerneck -16.387391771317855 -3.1413259895454857 -2.9521706762949065
upperneck 20.889594679323274 -4.066802119513178 2.9803530109148477
head 9.3322527246207 -1.8638581674442332 0.9441267581981121
lclavicle 2.9836848398806583e-16 5.490127373331695e-17
lhumerus -32.37578368917841 3.4514305791146134 79.78167104237195
lradius 33.42857709951006
lwrist 10.864021958705951
lhand -29.457624682182352 17.88537628298211
lfingers 7.125020000000001
lthumb -2.5766242698259534 47.84567215953275
rclavicle 3.0746969812357473e-16 6.096977530547924e-17
rhumerus -33.45155308665927 -19.66059368065636 -77.2871200605215
rradius 27.148234169869028
rwrist 1.9890320581839471
rhand -17.260262958955487 23.468607431493563
rfingers 7.125020000000001
rthumb 8.60968929889885 -6.952371097117872
111
root 0.40081571622645396 17.370022762095132 18.1899168108897 -3.2034396668601643 -0.23042177247174522 -2.992207184205185
lfemur -0.34449902264916865 0.6333826182629414 -18.191697826471213
ltibia 55.95594826966392
lfoot -4.199966155759501 -5.961645341203809
ltoes -20.176540475939927
rfemur -25.921966063341962 2.6457873328122035 26.86503188647057
rtibia 28.819534407791995
rfoot -4.815042051543021 -8.349898888872815
rtoes 8.879590392876715
lowerback 12.25925915550717 -0.3334370665105979 0.4913273268560182
upperback 0.20054905409133977 -0.199308125888777 2.218730233269156
thorax -6.3562769172291045 -0.0998414297183555 2.2911026411029503
lowerneck -16.391858105289973 -3.10943666530028 -2.9387952748161714
upperneck 20.929206456413507 -3.997804414994235 2.9115666457736085
head 9.36134333956802 -1.8438627235005738 0.9426354586398296
lclavicle 2.9862277718372466e-16 5.508252483261832e-17
lhumerus -32.73987504154733 3.1140825299718804 79.7239194666236
lradius 33.59947458018604
lwrist 11.367947332142478
lhand -29.59083870538744 17.60408832698167
lfingers 7.125020000000001
lthumb -2.738243931994172 47.56435110306126
rclavicle 3.062688593486948e-16 6.013532917079521e-17
rhumerus -33.65381123326773 -19.981834043640767 -76.9646297312344
rradius 26.467698192190934
rwrist 2.4365350758966136
rhand -17.212354870128063 23.607345256795497
rfingers 7.125020000000001
rthumb 8.662148802201681 -6.704873605458327
112
root 0.35015311354263917 17.516021549366588 16.830551372976657 -3.228526402075474 1.0783239778702454 -3.3919885344053378
lfemur -3.7636395072435422 0.8608232949572123 -17.165473086094167
ltibia 58.25191630730316
lfoot -3.6524904802186273 -5.555708118171488
ltoes -19.201145965296803
rfemur -24.223730340888736 2.3070492943251453 27.424193040516645
rtibia 30.713262298954994
rfoot -4.836568808098338 -7.794706101137409
rtoes 9.711306530485416
lowerback 12.15724052839462 -0.5007383176998029 0.9297715744215567
upperback 0.2666510165822279 -0.3451166030860918 2.3237986237216095
thorax -6.2586619529540855 -0.16872935369809042 2.1316507407711986
lowerneck -16.417439614427344 -3.0806714371219104 -2.89710806579976
upperneck 20.967948483841017 -3.9271324714063893 2.7995818400248202
head 9.394057500734366 -1.8243787148707948 0.9254338916358262
lclavicle 2.98404886198893e-16 5.492840431540585e-17
lhumerus -32.84269008887742 3.0110884479110736 79.76726112231694
lradius 33.59319640065393
lwrist 11.605682656751497
lhand -29.61819362920632 17.66184678856033
lfingers 7.125020000000001
lthumb -2.7978748169726773 47.649944240216065
rclavicle 3.047409204383119e-16 5.912051068924176e-17
rhumerus -33.87667300696488 -20.357406424105044 -76.70439889137285
rradius 25.82785946680546
rwrist 2.913883553544169
rhand -17.179229691300304 23.696845254018907
rfingers 7.125020000000001
rthumb 8.70769288959945 -6.521865617987935
